<svg width="90" height="45" viewBox="0 0 90 45" fill="none" xmlns="http://www.w3.org/2000/svg">
<path d="M70.665 0C71.8466 0 72.565 1.30298 71.9336 2.30176L52.0889 33.6943C52.0008 33.8336 51.8474 33.9179 51.6826 33.918C51.3313 33.918 51.0983 33.5539 51.2461 33.2354L62.5557 8.91309C62.8096 8.3666 62.4103 7.74121 61.8076 7.74121H57.4336C56.2494 7.74093 55.5329 6.43295 56.1699 5.43457L58.458 1.84863C59.1927 0.697306 60.4643 0 61.8301 0H70.665ZM43.2324 0C43.7439 2.36482e-05 44.2204 0.260626 44.4961 0.691406L54.9912 17.0898C55.282 17.5442 55.3059 18.1203 55.0547 18.5977L50.5645 27.1289C50.0257 28.1526 48.5799 28.207 47.9658 27.2266L42.3965 18.334H36.4141L41.6084 17.876H37.3311L41.6084 17.5703L6.11133 16.9082H33.7148L4.53223 16.4502H32.7979L34.2754 16.1445H0L34.2754 15.126H7.63965L34.2754 14.3623H16.4502L34.6318 13.9541H22.1543L34.6318 13.1396L18.1309 13.5469L33.7148 12.6299H34.2754L33.3076 12.1211L36.1084 11.8662H20.9824L38.123 11.5117L32.3516 2.2959C31.7262 1.29692 32.4444 0 33.623 0H43.2324Z" fill="#0CCF0E"/>
<mask id="path-2-inside-1_2275_6491" fill="white">
<path d="M33.7032 12.3277L33.3539 12.5931C33.2827 12.6473 33.3215 12.7597 33.4115 12.7597H44.2901L44.3294 12.775C44.7088 12.9232 45.0275 13.1915 45.2354 13.5377C45.3004 13.646 45.3538 13.7606 45.3947 13.8798L45.6218 14.5413C45.6608 14.6549 45.5458 14.7608 45.4335 14.7146L45.4103 14.7051C45.148 14.5974 44.8716 14.5268 44.5893 14.4953L44.3903 14.4731V13.0036H43.3178V14.8332L44.3903 14.9435L45.0838 15.093C45.2492 15.1287 45.4087 15.1872 45.5575 15.2667L45.6607 15.3219C45.7599 15.3749 45.8428 15.4496 45.9046 15.538C46.0369 15.7275 46.2158 15.9309 46.4469 15.9309L46.4071 15.5405C46.3592 15.0706 46.2545 14.6081 46.0952 14.1626C45.9646 13.7974 45.7981 13.4456 45.5979 13.1124L45.4628 12.8874H45.7309C45.8266 12.8874 45.9072 12.9582 45.9182 13.0519L45.9267 13.1237C45.9377 13.2175 46.0182 13.2882 46.114 13.2882H46.4148C46.4307 13.2882 46.442 13.273 46.4373 13.258L46.2829 12.7739C46.2639 12.7143 46.2157 12.668 46.1547 12.6509L45.4039 12.4402L44.4269 12.104C44.3359 12.0726 44.2421 12.05 44.1467 12.0363L43.3178 11.9175L43.2247 12.079C43.1911 12.1371 43.1285 12.173 43.0607 12.173H34.1638C33.9971 12.173 33.8352 12.2274 33.7032 12.3277Z"/>
<path d="M35.8809 13.0036H39.4166V14.8273H35.8809V13.0036Z"/>
<path d="M39.5345 12.8991H43.0703V14.7228H39.5345V12.8991Z"/>
<path d="M35.7218 14.7809V12.992H34.8318C33.6932 12.992 32.5278 13.6191 32.5278 14.7577V14.7809H35.7218Z"/>
<path d="M33.0532 15.1111L33.1112 14.9087L42.6076 14.9303C43.0803 14.9314 43.5522 14.9688 44.019 15.0422L44.8692 15.2244C45.0248 15.2577 45.1759 15.3087 45.3195 15.3764L45.4899 15.4567C45.7434 15.5761 45.9048 15.8284 45.9048 16.1053C45.9048 16.1084 45.9073 16.1109 45.9105 16.1109H46.388C46.414 16.1109 46.4351 16.1317 46.4351 16.1574V16.65C46.4351 16.7246 46.3898 16.792 46.3201 16.8211L46.1227 16.9035C46.0994 16.9133 46.0744 16.9183 46.0491 16.9183H44.019V16.5627C44.019 16.2734 43.9024 15.996 43.6949 15.7915L43.665 15.762C43.4766 15.5764 43.2211 15.472 42.9547 15.472C42.6752 15.472 42.4083 15.5869 42.2182 15.7889L42.1998 15.8085C42.0169 16.0029 41.9152 16.2582 41.9152 16.5234V16.8873C41.9152 16.9044 41.9012 16.9183 41.8839 16.9183H37.7767C37.7483 16.9183 37.7254 16.8956 37.7254 16.8677V16.6267C37.7254 16.2999 37.5782 15.9899 37.3236 15.7804L37.2673 15.7341C37.1026 15.5986 36.8948 15.5243 36.6802 15.5243C36.4434 15.5243 36.2157 15.6147 36.045 15.7765L36.0102 15.8096C35.8071 16.0021 35.6923 16.2679 35.6923 16.5457V16.9183H33.506C33.4637 16.9183 33.4294 16.8845 33.4294 16.8428C33.4294 16.7594 33.3608 16.6918 33.2762 16.6918H33.0357C32.9844 16.6918 32.9337 16.6815 32.8866 16.6615L32.6065 16.5426C32.5373 16.5133 32.4925 16.4462 32.4925 16.3719V15.557C32.4925 15.494 32.5442 15.443 32.6081 15.443C32.8151 15.443 32.9969 15.3075 33.0532 15.1111Z"/>
<path d="M37.6134 16.5349C37.6134 17.0225 37.2124 17.4178 36.7177 17.4178C36.223 17.4178 35.822 17.0225 35.822 16.5349C35.822 16.0474 36.223 15.6521 36.7177 15.6521C37.2124 15.6521 37.6134 16.0474 37.6134 16.5349Z"/>
<path d="M43.8717 16.5349C43.8717 17.0225 43.4707 17.4178 42.976 17.4178C42.4813 17.4178 42.0802 17.0225 42.0802 16.5349C42.0802 16.0474 42.4813 15.6521 42.976 15.6521C43.4707 15.6521 43.8717 16.0474 43.8717 16.5349Z"/>
</mask>
<path d="M33.7032 12.3277L33.3539 12.5931C33.2827 12.6473 33.3215 12.7597 33.4115 12.7597H44.2901L44.3294 12.775C44.7088 12.9232 45.0275 13.1915 45.2354 13.5377C45.3004 13.646 45.3538 13.7606 45.3947 13.8798L45.6218 14.5413C45.6608 14.6549 45.5458 14.7608 45.4335 14.7146L45.4103 14.7051C45.148 14.5974 44.8716 14.5268 44.5893 14.4953L44.3903 14.4731V13.0036H43.3178V14.8332L44.3903 14.9435L45.0838 15.093C45.2492 15.1287 45.4087 15.1872 45.5575 15.2667L45.6607 15.3219C45.7599 15.3749 45.8428 15.4496 45.9046 15.538C46.0369 15.7275 46.2158 15.9309 46.4469 15.9309L46.4071 15.5405C46.3592 15.0706 46.2545 14.6081 46.0952 14.1626C45.9646 13.7974 45.7981 13.4456 45.5979 13.1124L45.4628 12.8874H45.7309C45.8266 12.8874 45.9072 12.9582 45.9182 13.0519L45.9267 13.1237C45.9377 13.2175 46.0182 13.2882 46.114 13.2882H46.4148C46.4307 13.2882 46.442 13.273 46.4373 13.258L46.2829 12.7739C46.2639 12.7143 46.2157 12.668 46.1547 12.6509L45.4039 12.4402L44.4269 12.104C44.3359 12.0726 44.2421 12.05 44.1467 12.0363L43.3178 11.9175L43.2247 12.079C43.1911 12.1371 43.1285 12.173 43.0607 12.173H34.1638C33.9971 12.173 33.8352 12.2274 33.7032 12.3277Z" stroke="#FCFCFC" mask="url(#path-2-inside-1_2275_6491)"/>
<path d="M35.8809 13.0036H39.4166V14.8273H35.8809V13.0036Z" stroke="#FCFCFC" mask="url(#path-2-inside-1_2275_6491)"/>
<path d="M39.5345 12.8991H43.0703V14.7228H39.5345V12.8991Z" stroke="#FCFCFC" mask="url(#path-2-inside-1_2275_6491)"/>
<path d="M35.7218 14.7809V12.992H34.8318C33.6932 12.992 32.5278 13.6191 32.5278 14.7577V14.7809H35.7218Z" stroke="#FCFCFC" mask="url(#path-2-inside-1_2275_6491)"/>
<path d="M33.0532 15.1111L33.1112 14.9087L42.6076 14.9303C43.0803 14.9314 43.5522 14.9688 44.019 15.0422L44.8692 15.2244C45.0248 15.2577 45.1759 15.3087 45.3195 15.3764L45.4899 15.4567C45.7434 15.5761 45.9048 15.8284 45.9048 16.1053C45.9048 16.1084 45.9073 16.1109 45.9105 16.1109H46.388C46.414 16.1109 46.4351 16.1317 46.4351 16.1574V16.65C46.4351 16.7246 46.3898 16.792 46.3201 16.8211L46.1227 16.9035C46.0994 16.9133 46.0744 16.9183 46.0491 16.9183H44.019V16.5627C44.019 16.2734 43.9024 15.996 43.6949 15.7915L43.665 15.762C43.4766 15.5764 43.2211 15.472 42.9547 15.472C42.6752 15.472 42.4083 15.5869 42.2182 15.7889L42.1998 15.8085C42.0169 16.0029 41.9152 16.2582 41.9152 16.5234V16.8873C41.9152 16.9044 41.9012 16.9183 41.8839 16.9183H37.7767C37.7483 16.9183 37.7254 16.8956 37.7254 16.8677V16.6267C37.7254 16.2999 37.5782 15.9899 37.3236 15.7804L37.2673 15.7341C37.1026 15.5986 36.8948 15.5243 36.6802 15.5243C36.4434 15.5243 36.2157 15.6147 36.045 15.7765L36.0102 15.8096C35.8071 16.0021 35.6923 16.2679 35.6923 16.5457V16.9183H33.506C33.4637 16.9183 33.4294 16.8845 33.4294 16.8428C33.4294 16.7594 33.3608 16.6918 33.2762 16.6918H33.0357C32.9844 16.6918 32.9337 16.6815 32.8866 16.6615L32.6065 16.5426C32.5373 16.5133 32.4925 16.4462 32.4925 16.3719V15.557C32.4925 15.494 32.5442 15.443 32.6081 15.443C32.8151 15.443 32.9969 15.3075 33.0532 15.1111Z" stroke="#FCFCFC" mask="url(#path-2-inside-1_2275_6491)"/>
<path d="M37.6134 16.5349C37.6134 17.0225 37.2124 17.4178 36.7177 17.4178C36.223 17.4178 35.822 17.0225 35.822 16.5349C35.822 16.0474 36.223 15.6521 36.7177 15.6521C37.2124 15.6521 37.6134 16.0474 37.6134 16.5349Z" stroke="#FCFCFC" mask="url(#path-2-inside-1_2275_6491)"/>
<path d="M43.8717 16.5349C43.8717 17.0225 43.4707 17.4178 42.976 17.4178C42.4813 17.4178 42.0802 17.0225 42.0802 16.5349C42.0802 16.0474 42.4813 15.6521 42.976 15.6521C43.4707 15.6521 43.8717 16.0474 43.8717 16.5349Z" stroke="#FCFCFC" mask="url(#path-2-inside-1_2275_6491)"/>
<path d="M19.7081 37.1313L21.4659 42.9287H21.5334L23.2948 37.1313H24.9993L22.4922 44.7617H20.5107L18 37.1313H19.7081Z" fill="#0CCF0E"/>
<path d="M33.8105 41.0509C33.8105 41.883 33.6601 42.5909 33.3595 43.1746C33.0612 43.7583 32.654 44.2041 32.1379 44.5121C31.6241 44.8176 31.0465 44.9704 30.4049 44.9704C29.7586 44.9704 29.1786 44.8164 28.6648 44.5084C28.1511 44.2004 27.7451 43.7545 27.4468 43.1708C27.1485 42.5871 26.9994 41.8805 26.9994 41.0509C26.9994 40.2188 27.1485 39.5109 27.4468 38.9272C27.7451 38.3435 28.1511 37.8989 28.6648 37.5933C29.1786 37.2853 29.7586 37.1313 30.4049 37.1313C31.0465 37.1313 31.6241 37.2853 32.1379 37.5933C32.654 37.8989 33.0612 38.3435 33.3595 38.9272C33.6601 39.5109 33.8105 40.2188 33.8105 41.0509ZM32.2515 41.0509C32.2515 40.5119 32.1746 40.0573 32.0207 39.6872C31.8692 39.3171 31.6549 39.0365 31.3779 38.8452C31.1009 38.654 30.7766 38.5583 30.4049 38.5583C30.0332 38.5583 29.7089 38.654 29.4319 38.8452C29.1549 39.0365 28.9395 39.3171 28.7856 39.6872C28.6341 40.0573 28.5583 40.5119 28.5583 41.0509C28.5583 41.5899 28.6341 42.0444 28.7856 42.4145C28.9395 42.7846 29.1549 43.0653 29.4319 43.2565C29.7089 43.4478 30.0332 43.5434 30.4049 43.5434C30.7766 43.5434 31.1009 43.4478 31.3779 43.2565C31.6549 43.0653 31.8692 42.7846 32.0207 42.4145C32.1746 42.0444 32.2515 41.5899 32.2515 41.0509Z" fill="#0CCF0E"/>
<path d="M35.8106 44.7617V37.1313H37.3482V43.4316H40.4661V44.7617H35.8106Z" fill="#0CCF0E"/>
<path d="M42.4655 38.4615V37.1313H48.4386V38.4615H46.212V44.7617H44.6921V38.4615H42.4655Z" fill="#0CCF0E"/>
<path d="M54.5639 40.2787H50.7514C50.6133 40.2787 50.5014 40.3961 50.5014 40.541V44.7377C50.5014 44.8826 50.6133 45 50.7514 45H56.1264C56.2645 45 56.3764 44.8826 56.3764 44.7377V43.6885C56.3764 43.5437 56.2645 43.4262 56.1264 43.4262H52.3139C52.1758 43.4262 52.0639 43.3088 52.0639 43.1639V41.9836C52.0639 41.8387 52.1758 41.7213 52.3139 41.7213H54.5639C54.702 41.7213 54.8139 41.6039 54.8139 41.459V40.541C54.8139 40.3961 54.702 40.2787 54.5639 40.2787Z" fill="#0CCF0E"/>
<path d="M50.4389 37V38.5082H56.2514V37H50.4389Z" fill="#0CCF0E"/>
<path d="M88.1821 40.2787H84.3696C84.2316 40.2787 84.1196 40.3961 84.1196 40.541V44.7377C84.1196 44.8826 84.2316 45 84.3696 45H89.7446C89.8827 45 89.9946 44.8826 89.9946 44.7377V43.6885C89.9946 43.5437 89.8827 43.4262 89.7446 43.4262H85.9321C85.7941 43.4262 85.6821 43.3088 85.6821 43.1639V41.9836C85.6821 41.8387 85.7941 41.7213 85.9321 41.7213H88.1821C88.3202 41.7213 88.4321 41.6039 88.4321 41.459V40.541C88.4321 40.3961 88.3202 40.2787 88.1821 40.2787Z" fill="#0CCF0E"/>
<path d="M84.0571 37V38.5082H89.8696V37H84.0571Z" fill="#0CCF0E"/>
<path d="M58.3764 44.6066V37.2623C58.3764 37.1174 58.4883 37 58.6264 37H62.532C62.8824 37 63.2287 37.0798 63.5469 37.2339C63.7654 37.3397 63.9676 37.479 64.1469 37.6473L64.3 37.791C64.7861 38.2474 65.0639 38.8993 65.0639 39.5837C65.0639 39.827 65.0287 40.069 64.9596 40.3012L64.889 40.5382C64.7986 40.8415 64.6395 41.1174 64.4253 41.3421L64.23 41.5471C64.0036 41.7846 63.6966 41.918 63.3764 41.918L65.044 44.4578C65.1582 44.6318 65.0395 44.8689 64.8381 44.8689H63.5014C63.4227 44.8689 63.3486 44.83 63.3014 44.7639L61.1764 41.7913C61.144 41.7459 61.1264 41.6906 61.1264 41.6339V40.9537C61.1264 40.8706 61.1906 40.8033 61.2698 40.8033H62.4702C63.0742 40.8033 63.5639 40.2895 63.5639 39.6557C63.5639 39.022 63.0742 38.5082 62.4702 38.5082H59.9389V44.6066C59.9389 44.7514 59.827 44.8689 59.6889 44.8689H58.6264C58.4883 44.8689 58.3764 44.7514 58.3764 44.6066Z" fill="#0CCF0E"/>
<path d="M67.0883 37.1313H68.8106L70.469 40.4175H70.54L72.1984 37.1313H73.9207L71.268 42.0643V44.7617H69.741V42.0643L67.0883 37.1313Z" fill="#0CCF0E"/>
<path d="M78.4988 44.7617H75.9207V37.1313H78.5202C79.2517 37.1313 79.8814 37.2841 80.4094 37.5896C80.9373 37.8926 81.3433 38.3286 81.6274 38.8974C81.9139 39.4662 82.0571 40.1467 82.0571 40.9391C82.0571 41.7339 81.9139 42.417 81.6274 42.9883C81.3433 43.5596 80.9349 43.998 80.4023 44.3035C79.872 44.609 79.2375 44.7617 78.4988 44.7617ZM77.4584 43.3795H78.4349C78.8895 43.3795 79.2718 43.295 79.5819 43.1261C79.8944 42.9547 80.1288 42.6902 80.2851 42.3325C80.4437 41.9724 80.523 41.5079 80.523 40.9391C80.523 40.3753 80.4437 39.9145 80.2851 39.5568C80.1288 39.1992 79.8956 38.9359 79.5855 38.767C79.2754 38.5981 78.893 38.5136 78.4385 38.5136H77.4584V43.3795Z" fill="#0CCF0E"/>
</svg>
