<svg width="40" height="20" viewBox="0 0 40 20" fill="none" xmlns="http://www.w3.org/2000/svg">
<path d="M29.125 0C30.1224 0.000130367 30.7283 1.10021 30.1953 1.94336L22.3037 14.4277C22.2661 14.4872 22.2003 14.5233 22.1299 14.5234C21.9794 14.5234 21.8789 14.3669 21.9424 14.2305L26.7852 3.81641C26.8939 3.58242 26.7229 3.31445 26.4648 3.31445H25.3555C24.5181 3.3144 24.0108 2.38959 24.4609 1.68359L24.5947 1.47461C25.1808 0.556295 26.1948 0.000147254 27.2842 0H29.125ZM18.042 0C18.5534 3.69284e-05 19.03 0.260637 19.3057 0.691406L23.2773 6.89746C23.568 7.35175 23.592 7.92703 23.3408 8.4043L22.3447 10.2969C21.8058 11.3203 20.3601 11.3748 19.7461 10.3945L18.1533 7.85059H15.5918L17.8164 7.6543H15.9844L17.8164 7.52344L2.61719 7.24023H14.4365L1.94043 7.04395H14.0439L14.6758 6.91309H0L14.6758 6.47656H3.27148L14.6758 6.14941H7.04395L14.8281 5.97461H9.48633L14.8281 5.62598L7.76367 5.80078L14.4365 5.4082H14.6758L14.2617 5.19043L15.4609 5.08105H8.98438L16.3232 4.92969L14.6748 2.2959C14.0493 1.2969 14.7676 0 15.9463 0H18.042Z" fill="white"/>
<mask id="path-2-inside-1_2263_6348" fill="white">
<path d="M14.4311 5.27844L14.2816 5.39209C14.2511 5.41527 14.2677 5.46339 14.3062 5.46339H18.9643L18.9811 5.46996C19.1435 5.53341 19.28 5.64829 19.369 5.79653C19.3968 5.8429 19.4197 5.892 19.4372 5.94303L19.5345 6.22625C19.5512 6.27488 19.5019 6.32023 19.4538 6.30048L19.4439 6.29641C19.3316 6.25029 19.2133 6.22003 19.0924 6.20654L19.0072 6.19703V5.56784H18.5479V6.35122L19.0072 6.39848L19.3041 6.4625C19.3749 6.47777 19.4432 6.5028 19.5069 6.53687L19.5511 6.5605C19.5936 6.58321 19.6291 6.61516 19.6555 6.65304C19.7122 6.73415 19.7888 6.82125 19.8878 6.82125L19.8707 6.65411C19.8502 6.45291 19.8054 6.25484 19.7372 6.06411C19.6813 5.90773 19.6099 5.75711 19.5242 5.61443L19.4664 5.5181H19.5812C19.6222 5.5181 19.6567 5.54838 19.6614 5.58852L19.665 5.61928C19.6697 5.65942 19.7042 5.6897 19.7452 5.6897H19.874C19.8808 5.6897 19.8857 5.68318 19.8836 5.67677L19.8175 5.4695C19.8094 5.44395 19.7888 5.42416 19.7626 5.41682L19.4411 5.32661L19.0228 5.18263C18.9839 5.16922 18.9437 5.15952 18.9029 5.15367L18.5479 5.10278L18.5081 5.17194C18.4937 5.19683 18.4669 5.21221 18.4378 5.21221H14.6283C14.557 5.21221 14.4877 5.2355 14.4311 5.27844Z"/>
<path d="M15.3636 5.56784H16.8775V6.34874H15.3636V5.56784Z"/>
<path d="M16.928 5.52308H18.4419V6.30397H16.928V5.52308Z"/>
<path d="M15.2955 6.32884V5.56287H14.9144C14.4269 5.56287 13.9279 5.83139 13.9279 6.31892V6.32884H15.2955Z"/>
<path d="M14.1528 6.47025L14.1777 6.38355L18.2439 6.39281C18.4463 6.39327 18.6483 6.4093 18.8482 6.44075L19.2122 6.51875C19.2788 6.53302 19.3435 6.55486 19.405 6.58383L19.478 6.6182C19.5865 6.66933 19.6556 6.77737 19.6556 6.89594C19.6556 6.89727 19.6567 6.89835 19.6581 6.89835H19.8625C19.8737 6.89835 19.8827 6.90726 19.8827 6.91825V7.12915C19.8827 7.1611 19.8633 7.18996 19.8335 7.20243L19.7489 7.23773C19.739 7.24189 19.7283 7.24403 19.7174 7.24403H18.8482V7.09179C18.8482 6.96793 18.7983 6.84915 18.7094 6.76157L18.6966 6.74894C18.6159 6.66945 18.5065 6.62479 18.3925 6.62479C18.2728 6.62479 18.1585 6.67395 18.0771 6.76046L18.0692 6.76886C17.9909 6.8521 17.9474 6.96142 17.9474 7.07494V7.23079C17.9474 7.23811 17.9414 7.24403 17.934 7.24403H16.1753C16.1632 7.24403 16.1534 7.23434 16.1534 7.22239V7.11921C16.1534 6.97925 16.0903 6.84651 15.9813 6.75682L15.9572 6.73699C15.8867 6.67896 15.7977 6.64717 15.7058 6.64717C15.6044 6.64717 15.507 6.68587 15.4339 6.75516L15.4189 6.76931C15.332 6.85176 15.2828 6.96556 15.2828 7.08449V7.24403H14.3467C14.3286 7.24403 14.3139 7.22956 14.3139 7.2117C14.3139 7.17599 14.2845 7.14704 14.2483 7.14704H14.1453C14.1234 7.14704 14.1017 7.14263 14.0815 7.13408L13.9615 7.0832C13.9319 7.07063 13.9127 7.04189 13.9127 7.0101V6.66115C13.9127 6.6342 13.9349 6.61235 13.9622 6.61235C14.0509 6.61235 14.1287 6.55431 14.1528 6.47025Z"/>
<path d="M16.1054 7.0799C16.1054 7.28867 15.9337 7.45791 15.7219 7.45791C15.5101 7.45791 15.3384 7.28867 15.3384 7.0799C15.3384 6.87112 15.5101 6.70188 15.7219 6.70188C15.9337 6.70188 16.1054 6.87112 16.1054 7.0799Z"/>
<path d="M18.7851 7.0799C18.7851 7.28867 18.6134 7.45791 18.4016 7.45791C18.1898 7.45791 18.018 7.28867 18.018 7.0799C18.018 6.87112 18.1898 6.70188 18.4016 6.70188C18.6134 6.70188 18.7851 6.87112 18.7851 7.0799Z"/>
</mask>
<path d="M14.4311 5.27844L14.2816 5.39209C14.2511 5.41527 14.2677 5.46339 14.3062 5.46339H18.9643L18.9811 5.46996C19.1435 5.53341 19.28 5.64829 19.369 5.79653C19.3968 5.8429 19.4197 5.892 19.4372 5.94303L19.5345 6.22625C19.5512 6.27488 19.5019 6.32023 19.4538 6.30048L19.4439 6.29641C19.3316 6.25029 19.2133 6.22003 19.0924 6.20654L19.0072 6.19703V5.56784H18.5479V6.35122L19.0072 6.39848L19.3041 6.4625C19.3749 6.47777 19.4432 6.5028 19.5069 6.53687L19.5511 6.5605C19.5936 6.58321 19.6291 6.61516 19.6555 6.65304C19.7122 6.73415 19.7888 6.82125 19.8878 6.82125L19.8707 6.65411C19.8502 6.45291 19.8054 6.25484 19.7372 6.06411C19.6813 5.90773 19.6099 5.75711 19.5242 5.61443L19.4664 5.5181H19.5812C19.6222 5.5181 19.6567 5.54838 19.6614 5.58852L19.665 5.61928C19.6697 5.65942 19.7042 5.6897 19.7452 5.6897H19.874C19.8808 5.6897 19.8857 5.68318 19.8836 5.67677L19.8175 5.4695C19.8094 5.44395 19.7888 5.42416 19.7626 5.41682L19.4411 5.32661L19.0228 5.18263C18.9839 5.16922 18.9437 5.15952 18.9029 5.15367L18.5479 5.10278L18.5081 5.17194C18.4937 5.19683 18.4669 5.21221 18.4378 5.21221H14.6283C14.557 5.21221 14.4877 5.2355 14.4311 5.27844Z" stroke="#0A0F11" mask="url(#path-2-inside-1_2263_6348)"/>
<path d="M15.3636 5.56784H16.8775V6.34874H15.3636V5.56784Z" stroke="#0A0F11" mask="url(#path-2-inside-1_2263_6348)"/>
<path d="M16.928 5.52308H18.4419V6.30397H16.928V5.52308Z" stroke="#0A0F11" mask="url(#path-2-inside-1_2263_6348)"/>
<path d="M15.2955 6.32884V5.56287H14.9144C14.4269 5.56287 13.9279 5.83139 13.9279 6.31892V6.32884H15.2955Z" stroke="#0A0F11" mask="url(#path-2-inside-1_2263_6348)"/>
<path d="M14.1528 6.47025L14.1777 6.38355L18.2439 6.39281C18.4463 6.39327 18.6483 6.4093 18.8482 6.44075L19.2122 6.51875C19.2788 6.53302 19.3435 6.55486 19.405 6.58383L19.478 6.6182C19.5865 6.66933 19.6556 6.77737 19.6556 6.89594C19.6556 6.89727 19.6567 6.89835 19.6581 6.89835H19.8625C19.8737 6.89835 19.8827 6.90726 19.8827 6.91825V7.12915C19.8827 7.1611 19.8633 7.18996 19.8335 7.20243L19.7489 7.23773C19.739 7.24189 19.7283 7.24403 19.7174 7.24403H18.8482V7.09179C18.8482 6.96793 18.7983 6.84915 18.7094 6.76157L18.6966 6.74894C18.6159 6.66945 18.5065 6.62479 18.3925 6.62479C18.2728 6.62479 18.1585 6.67395 18.0771 6.76046L18.0692 6.76886C17.9909 6.8521 17.9474 6.96142 17.9474 7.07494V7.23079C17.9474 7.23811 17.9414 7.24403 17.934 7.24403H16.1753C16.1632 7.24403 16.1534 7.23434 16.1534 7.22239V7.11921C16.1534 6.97925 16.0903 6.84651 15.9813 6.75682L15.9572 6.73699C15.8867 6.67896 15.7977 6.64717 15.7058 6.64717C15.6044 6.64717 15.507 6.68587 15.4339 6.75516L15.4189 6.76931C15.332 6.85176 15.2828 6.96556 15.2828 7.08449V7.24403H14.3467C14.3286 7.24403 14.3139 7.22956 14.3139 7.2117C14.3139 7.17599 14.2845 7.14704 14.2483 7.14704H14.1453C14.1234 7.14704 14.1017 7.14263 14.0815 7.13408L13.9615 7.0832C13.9319 7.07063 13.9127 7.04189 13.9127 7.0101V6.66115C13.9127 6.6342 13.9349 6.61235 13.9622 6.61235C14.0509 6.61235 14.1287 6.55431 14.1528 6.47025Z" stroke="#0A0F11" mask="url(#path-2-inside-1_2263_6348)"/>
<path d="M16.1054 7.0799C16.1054 7.28867 15.9337 7.45791 15.7219 7.45791C15.5101 7.45791 15.3384 7.28867 15.3384 7.0799C15.3384 6.87112 15.5101 6.70188 15.7219 6.70188C15.9337 6.70188 16.1054 6.87112 16.1054 7.0799Z" stroke="#0A0F11" mask="url(#path-2-inside-1_2263_6348)"/>
<path d="M18.7851 7.0799C18.7851 7.28867 18.6134 7.45791 18.4016 7.45791C18.1898 7.45791 18.018 7.28867 18.018 7.0799C18.018 6.87112 18.1898 6.70188 18.4016 6.70188C18.6134 6.70188 18.7851 6.87112 18.7851 7.0799Z" stroke="#0A0F11" mask="url(#path-2-inside-1_2263_6348)"/>
<path d="M5.8248 16.2003L6.67361 18.9997H6.70619L7.55671 16.2003H8.3798L7.16917 19.8849H6.21234L5 16.2003H5.8248Z" fill="white"/>
<path d="M12.6347 18.093C12.6347 18.4948 12.5621 18.8366 12.4169 19.1184C12.2729 19.4003 12.0762 19.6156 11.827 19.7643C11.579 19.9118 11.3 19.9856 10.9902 19.9856C10.6781 19.9856 10.3981 19.9112 10.15 19.7625C9.90192 19.6138 9.70586 19.3985 9.56182 19.1166C9.41778 18.8348 9.34576 18.4936 9.34576 18.093C9.34576 17.6912 9.41778 17.3493 9.56182 17.0675C9.70586 16.7856 9.90192 16.5709 10.15 16.4234C10.3981 16.2747 10.6781 16.2003 10.9902 16.2003C11.3 16.2003 11.579 16.2747 11.827 16.4234C12.0762 16.5709 12.2729 16.7856 12.4169 17.0675C12.5621 17.3493 12.6347 17.6912 12.6347 18.093ZM11.8819 18.093C11.8819 17.8327 11.8447 17.6132 11.7704 17.4345C11.6973 17.2558 11.5938 17.1203 11.4601 17.0279C11.3263 16.9355 11.1697 16.8894 10.9902 16.8894C10.8107 16.8894 10.6541 16.9355 10.5204 17.0279C10.3866 17.1203 10.2826 17.2558 10.2083 17.4345C10.1351 17.6132 10.0985 17.8327 10.0985 18.093C10.0985 18.3532 10.1351 18.5727 10.2083 18.7514C10.2826 18.9301 10.3866 19.0657 10.5204 19.158C10.6541 19.2504 10.8107 19.2966 10.9902 19.2966C11.1697 19.2966 11.3263 19.2504 11.4601 19.158C11.5938 19.0657 11.6973 18.9301 11.7704 18.7514C11.8447 18.5727 11.8819 18.3532 11.8819 18.093Z" fill="white"/>
<path d="M13.6003 19.8849V16.2003H14.3428V19.2426H15.8483V19.8849H13.6003Z" fill="white"/>
<path d="M16.814 16.8426V16.2003H19.6982V16.8426H18.623V19.8849H17.8891V16.8426H16.814Z" fill="white"/>
<path d="M22.6558 17.7202H20.8148C20.7482 17.7202 20.6941 17.7769 20.6941 17.8468V19.8733C20.6941 19.9433 20.7482 20 20.8148 20H23.4103C23.477 20 23.531 19.9433 23.531 19.8733V19.3667C23.531 19.2967 23.477 19.24 23.4103 19.24H21.5693C21.5027 19.24 21.4486 19.1833 21.4486 19.1134V18.5434C21.4486 18.4735 21.5027 18.4168 21.5693 18.4168H22.6558C22.7225 18.4168 22.7765 18.3601 22.7765 18.2901V17.8468C22.7765 17.7769 22.7225 17.7202 22.6558 17.7202Z" fill="white"/>
<path d="M20.6639 16.137V16.8652H23.4707V16.137H20.6639Z" fill="white"/>
<path d="M38.8893 17.7202H37.0484C36.9817 17.7202 36.9276 17.7769 36.9276 17.8468V19.8733C36.9276 19.9433 36.9817 20 37.0484 20H39.6438C39.7105 20 39.7645 19.9433 39.7645 19.8733V19.3667C39.7645 19.2967 39.7105 19.24 39.6438 19.24H37.8029C37.7362 19.24 37.6821 19.1833 37.6821 19.1134V18.5434C37.6821 18.4735 37.7362 18.4168 37.8029 18.4168H38.8893C38.956 18.4168 39.01 18.3601 39.01 18.2901V17.8468C39.01 17.7769 38.956 17.7202 38.8893 17.7202Z" fill="white"/>
<path d="M36.8975 16.137V16.8652H39.7042V16.137H36.8975Z" fill="white"/>
<path d="M24.4968 19.81V16.2636C24.4968 16.1937 24.5508 16.137 24.6175 16.137H26.5034C26.6726 16.137 26.8398 16.1755 26.9935 16.2499C27.099 16.301 27.1966 16.3683 27.2832 16.4495L27.3571 16.5189C27.5918 16.7393 27.726 17.0541 27.726 17.3846C27.726 17.5021 27.709 17.6189 27.6756 17.731L27.6415 17.8455C27.5979 17.992 27.5211 18.1252 27.4177 18.2337L27.3233 18.3326C27.214 18.4473 27.0657 18.5118 26.9111 18.5118L27.7164 19.7381C27.7716 19.8222 27.7142 19.9366 27.617 19.9366H26.9715C26.9335 19.9366 26.8977 19.9179 26.8749 19.886L25.8488 18.4505C25.8331 18.4286 25.8247 18.402 25.8247 18.3746V18.0461C25.8247 18.006 25.8557 17.9735 25.8939 17.9735H26.4735C26.7652 17.9735 27.0017 17.7254 27.0017 17.4194C27.0017 17.1133 26.7652 16.8652 26.4735 16.8652H25.2513V19.81C25.2513 19.8799 25.1972 19.9366 25.1305 19.9366H24.6175C24.5508 19.9366 24.4968 19.8799 24.4968 19.81Z" fill="white"/>
<path d="M28.7037 16.2003H29.5353L30.3361 17.7871H30.3704L31.1712 16.2003H32.0029L30.7219 18.5823V19.8849H29.9846V18.5823L28.7037 16.2003Z" fill="white"/>
<path d="M34.2135 19.8849H32.9686V16.2003H34.2238C34.5771 16.2003 34.8812 16.2741 35.1361 16.4216C35.391 16.5679 35.5871 16.7784 35.7243 17.0531C35.8626 17.3277 35.9317 17.6564 35.9317 18.039C35.9317 18.4228 35.8626 18.7526 35.7243 19.0285C35.5871 19.3043 35.3899 19.516 35.1327 19.6636C34.8766 19.8111 34.5702 19.8849 34.2135 19.8849ZM33.7111 19.2174H34.1827C34.4022 19.2174 34.5868 19.1766 34.7365 19.0951C34.8874 19.0123 35.0006 18.8846 35.0761 18.7118C35.1527 18.5379 35.191 18.3136 35.191 18.039C35.191 17.7667 35.1527 17.5442 35.0761 17.3715C35.0006 17.1988 34.888 17.0717 34.7383 16.9901C34.5885 16.9086 34.4039 16.8678 34.1844 16.8678H33.7111V19.2174Z" fill="white"/>
</svg>
