<svg width="24" height="24" viewBox="0 0 24 24" fill="none" xmlns="http://www.w3.org/2000/svg">
<g clip-path="url(#clip0_3012_2250)">
<path d="M5 5.5H19C19.663 5.5 20.2987 5.76358 20.7676 6.23242C21.2364 6.70126 21.5 7.33696 21.5 8V16C21.5 16.663 21.2364 17.2987 20.7676 17.7676C20.2987 18.2364 19.663 18.5 19 18.5H5C4.33696 18.5 3.70126 18.2364 3.23242 17.7676C2.76358 17.2987 2.5 16.663 2.5 16V8C2.5 7.33696 2.76358 6.70126 3.23242 6.23242C3.70126 5.76358 4.33696 5.5 5 5.5ZM3.5 16C3.5 16.3978 3.65815 16.7792 3.93945 17.0605C4.22076 17.3419 4.60218 17.5 5 17.5H19C19.3978 17.5 19.7792 17.3419 20.0605 17.0605C20.3419 16.7792 20.5 16.3978 20.5 16V10.5H3.5V16ZM5 6.5C4.60217 6.5 4.22076 6.65815 3.93945 6.93945C3.65815 7.22076 3.5 7.60217 3.5 8V9.5H20.5V8C20.5 7.60218 20.3419 7.22076 20.0605 6.93945C19.7792 6.65815 19.3978 6.5 19 6.5H5Z" fill="#033604" stroke="#033604"/>
<path d="M7 15H11C11.2652 15 11.5196 14.8946 11.7071 14.7071C11.8946 14.5196 12 14.2652 12 14C12 13.7348 11.8946 13.4804 11.7071 13.2929C11.5196 13.1054 11.2652 13 11 13H7C6.73478 13 6.48043 13.1054 6.29289 13.2929C6.10536 13.4804 6 13.7348 6 14C6 14.2652 6.10536 14.5196 6.29289 14.7071C6.48043 14.8946 6.73478 15 7 15Z" fill="#033604"/>
<path d="M15 15H17C17.2652 15 17.5196 14.8946 17.7071 14.7071C17.8946 14.5196 18 14.2652 18 14C18 13.7348 17.8946 13.4804 17.7071 13.2929C17.5196 13.1054 17.2652 13 17 13H15C14.7348 13 14.4804 13.1054 14.2929 13.2929C14.1054 13.4804 14 13.7348 14 14C14 14.2652 14.1054 14.5196 14.2929 14.7071C14.4804 14.8946 14.7348 15 15 15Z" fill="#033604"/>
</g>
<defs>
<clipPath id="clip0_3012_2250">
<rect width="24" height="24" fill="white"/>
</clipPath>
</defs>
</svg>
