<svg width="24" height="24" viewBox="0 0 24 24" fill="none" xmlns="http://www.w3.org/2000/svg">
<rect width="24" height="24" rx="12" fill="#0CCF0E"/>
<g clip-path="url(#clip0_2298_920)">
<path d="M16.6796 8.47168C16.7023 8.46988 16.7255 8.47217 16.747 8.47949C16.7684 8.48678 16.7879 8.49857 16.8046 8.51367C16.8215 8.52892 16.8353 8.54769 16.8447 8.56836C16.854 8.58895 16.8588 8.61117 16.8593 8.63379C16.8598 8.65644 16.8561 8.67922 16.8476 8.7002C16.839 8.7212 16.8257 8.73997 16.8095 8.75586L16.7997 8.76562L16.791 8.77637L10.6972 15.4424L10.6953 15.4453C10.6799 15.4622 10.6613 15.4759 10.6406 15.4854C10.6198 15.4948 10.597 15.4987 10.5742 15.499C10.5517 15.4988 10.5293 15.4953 10.5087 15.4863C10.4878 15.4772 10.4686 15.463 10.4531 15.4463L10.4511 15.4443L7.21088 11.9971H7.2099C7.18017 11.9648 7.16456 11.9218 7.16596 11.8779C7.16737 11.8336 7.18633 11.7911 7.21869 11.7607C7.25104 11.7305 7.29452 11.7144 7.33881 11.7158C7.38299 11.7173 7.4247 11.7364 7.45502 11.7686L10.2021 14.6953L10.5712 15.0889L10.9355 14.6904L16.5419 8.55762L16.5537 8.5459L16.5634 8.5332C16.5776 8.51551 16.5951 8.50086 16.6152 8.49023C16.6351 8.47967 16.6571 8.47352 16.6796 8.47168Z" fill="white" stroke="white"/>
</g>
<defs>
<clipPath id="clip0_2298_920">
<rect width="16" height="16" fill="white" transform="translate(4 4)"/>
</clipPath>
</defs>
</svg>
