<svg width="24" height="24" viewBox="0 0 24 24" fill="none" xmlns="http://www.w3.org/2000/svg">
<g clip-path="url(#clip0_3012_2376)">
<path d="M15.5 8.54004C17.0913 8.54004 18.617 9.17263 19.7422 10.2979C20.8674 11.4231 21.5 12.9487 21.5 14.54V20C21.5 20.3978 21.3418 20.7792 21.0605 21.0605C20.7792 21.3419 20.3978 21.5 20 21.5H18.3301C17.9323 21.5 17.5508 21.3418 17.2695 21.0605C16.9882 20.7792 16.8301 20.3978 16.8301 20L16.8291 14.6299C16.8378 14.3122 16.7404 14.0007 16.5508 13.7451C16.3569 13.4839 16.0797 13.2969 15.7646 13.2158L15.7402 13.21L15.7148 13.2061L15.5723 13.1914C15.4296 13.1851 15.2865 13.2021 15.1484 13.2412C14.9641 13.2935 14.7926 13.3848 14.6465 13.5088C14.4968 13.6359 14.3762 13.7944 14.2939 13.9727C14.2119 14.1505 14.1696 14.3442 14.1699 14.54V20C14.1699 20.3978 14.0118 20.7792 13.7305 21.0605C13.4492 21.3418 13.0677 21.5 12.6699 21.5H11C10.6022 21.5 10.2208 21.3419 9.93945 21.0605C9.65816 20.7792 9.5 20.3978 9.5 20V14.54C9.5 12.9487 10.1326 11.4231 11.2578 10.2979C12.383 9.17263 13.9087 8.54004 15.5 8.54004ZM15.5 9.54004C14.1739 9.54004 12.9025 10.0672 11.9648 11.0049C11.0272 11.9426 10.5 13.214 10.5 14.54V20.5H13.1699V14.54L13.1816 14.3086C13.2346 13.7731 13.4701 13.2689 13.8525 12.8838C14.2897 12.4437 14.8836 12.1948 15.5039 12.1904L15.5176 12.1895H15.5312C15.6564 12.1816 15.7821 12.1808 15.9072 12.1875C16.4506 12.2996 16.9395 12.5956 17.29 13.0264C17.6473 13.4655 17.8383 14.0169 17.8301 14.583V20.5H20.5V14.54C20.5 13.214 19.9728 11.9426 19.0352 11.0049C18.0975 10.0672 16.8261 9.54004 15.5 9.54004Z" fill="#033604" stroke="#033604"/>
<path d="M6 22H4C3.46957 22 2.96086 21.7893 2.58579 21.4142C2.21071 21.0391 2 20.5304 2 20V10C2 9.46957 2.21071 8.96086 2.58579 8.58579C2.96086 8.21071 3.46957 8 4 8H6C6.53043 8 7.03914 8.21071 7.41421 8.58579C7.78929 8.96086 8 9.46957 8 10V20C8 20.5304 7.78929 21.0391 7.41421 21.4142C7.03914 21.7893 6.53043 22 6 22ZM4 10V20H6V10H4Z" fill="#033604"/>
<path d="M5 7C4.40666 7 3.82664 6.82405 3.33329 6.49441C2.83994 6.16477 2.45543 5.69623 2.22836 5.14805C2.0013 4.59987 1.94189 3.99667 2.05765 3.41473C2.1734 2.83279 2.45912 2.29824 2.87868 1.87868C3.29824 1.45912 3.83279 1.1734 4.41473 1.05765C4.99667 0.94189 5.59987 1.0013 6.14805 1.22836C6.69623 1.45543 7.16477 1.83994 7.49441 2.33329C7.82405 2.82664 8 3.40666 8 4C8 4.79565 7.68393 5.55871 7.12132 6.12132C6.55871 6.68393 5.79565 7 5 7ZM5 3C4.80222 3 4.60888 3.05865 4.44443 3.16853C4.27998 3.27841 4.15181 3.43459 4.07612 3.61732C4.00043 3.80004 3.98063 4.00111 4.01922 4.19509C4.0578 4.38907 4.15304 4.56726 4.29289 4.70711C4.43275 4.84696 4.61093 4.9422 4.80491 4.98079C4.99889 5.01937 5.19996 4.99957 5.38268 4.92388C5.56541 4.84819 5.72159 4.72002 5.83147 4.55557C5.94135 4.39112 6 4.19778 6 4C6 3.73478 5.89464 3.48043 5.70711 3.29289C5.51957 3.10536 5.26522 3 5 3Z" fill="#033604"/>
</g>
<defs>
<clipPath id="clip0_3012_2376">
<rect width="24" height="24" fill="white"/>
</clipPath>
</defs>
</svg>
