<svg width="24" height="24" viewBox="0 0 24 24" fill="none" xmlns="http://www.w3.org/2000/svg">
<g clip-path="url(#clip0_3012_2212)">
<path d="M12 2.5C13.9762 2.4999 15.873 3.27958 17.2773 4.66992C18.6816 6.06021 19.4802 7.94882 19.5 9.9248C19.4979 12.4801 17.8487 15.256 16.0654 17.4854C15.1839 18.5874 14.2908 19.531 13.5957 20.2148C13.2484 20.5565 12.951 20.8317 12.7314 21.0293C12.6216 21.1281 12.5317 21.2075 12.4648 21.2646C12.4316 21.2931 12.4051 21.3163 12.3848 21.333C12.3746 21.3414 12.3664 21.3478 12.3604 21.3525C12.355 21.3568 12.3519 21.3582 12.3516 21.3584L12.3379 21.3691L12.3252 21.3799C12.2346 21.4573 12.1192 21.5 12 21.5C11.8819 21.5 11.7679 21.458 11.6777 21.3818C11.5358 21.2588 9.72417 19.692 7.95215 17.4844C6.16205 15.2542 4.50208 12.479 4.5 9.9248C4.51981 7.94882 5.31837 6.06021 6.72266 4.66992C8.03936 3.36638 9.78889 2.59939 11.6309 2.50879L12 2.5ZM12 3.41992C10.2761 3.41992 8.62231 4.10523 7.40332 5.32422C6.18463 6.54314 5.50002 8.19625 5.5 9.91992C5.5 11.9532 6.66698 14.0996 7.96973 15.8828C9.28674 17.6856 10.8119 19.2088 11.6553 20.0117L12 20.3408L12.3447 20.0117C13.1889 19.208 14.7136 17.6772 16.0303 15.8711C17.3323 14.085 18.5 11.9385 18.5 9.91992C18.5 8.19625 17.8154 6.54314 16.5967 5.32422C15.3777 4.10523 13.7239 3.41992 12 3.41992Z" fill="#033604" stroke="#033604"/>
<path d="M12 6C11.3078 6 10.6311 6.20527 10.0555 6.58986C9.47993 6.97444 9.03133 7.52107 8.76642 8.16061C8.50152 8.80015 8.4322 9.50388 8.56725 10.1828C8.7023 10.8618 9.03564 11.4854 9.52513 11.9749C10.0146 12.4644 10.6383 12.7977 11.3172 12.9327C11.9961 13.0678 12.6999 12.9985 13.3394 12.7336C13.9789 12.4687 14.5256 12.0201 14.9101 11.4445C15.2947 10.8689 15.5 10.1922 15.5 9.5C15.5 8.57174 15.1313 7.6815 14.4749 7.02513C13.8185 6.36875 12.9283 6 12 6ZM12 11C11.7033 11 11.4133 10.912 11.1666 10.7472C10.92 10.5824 10.7277 10.3481 10.6142 10.074C10.5007 9.79994 10.4709 9.49834 10.5288 9.20736C10.5867 8.91639 10.7296 8.64912 10.9393 8.43934C11.1491 8.22956 11.4164 8.0867 11.7074 8.02882C11.9983 7.97094 12.2999 8.00065 12.574 8.11418C12.8481 8.22771 13.0824 8.41997 13.2472 8.66665C13.412 8.91332 13.5 9.20333 13.5 9.5C13.5 9.89782 13.342 10.2794 13.0607 10.5607C12.7794 10.842 12.3978 11 12 11Z" fill="#033604"/>
</g>
<defs>
<clipPath id="clip0_3012_2212">
<rect width="24" height="24" fill="white"/>
</clipPath>
</defs>
</svg>
