<svg width="24" height="24" viewBox="0 0 24 24" fill="none" xmlns="http://www.w3.org/2000/svg">
<g clip-path="url(#clip0_3012_1808)">
<path d="M15.1195 4.50049C15.646 4.51619 16.1645 4.63613 16.644 4.854C17.1235 5.07197 17.5554 5.38365 17.9135 5.77002L17.9301 5.78857L17.9486 5.8042C18.1287 5.9634 18.3528 6.06563 18.5912 6.09619C18.8247 6.12608 19.0608 6.08463 19.2719 5.98096L19.2729 5.98193C19.4254 5.90998 19.5957 5.88294 19.7631 5.90381C19.9306 5.92476 20.0889 5.99368 20.2191 6.10107C20.3491 6.20834 20.446 6.35009 20.4984 6.51025C20.5509 6.67061 20.5566 6.84284 20.515 7.00635L20.5141 7.01221C20.3008 7.89079 19.8967 8.71164 19.3305 9.4165L19.2279 9.54346L19.2201 9.70654C19.0914 12.4194 17.8955 14.9715 15.893 16.8062C13.8904 18.6407 11.2434 19.6093 8.52969 19.5005H8.43399C6.89671 19.487 5.38159 19.1315 3.99844 18.4604L3.99258 18.4575L3.87051 18.3882C3.75543 18.3097 3.66024 18.2042 3.59317 18.0806C3.52608 17.9567 3.48962 17.8187 3.48672 17.6792L3.49551 17.5396C3.52493 17.3519 3.61228 17.178 3.74551 17.0425C3.87895 16.9068 4.05123 16.8152 4.23868 16.7827C5.20041 16.6526 6.12565 16.3288 6.95743 15.8286L7.58047 15.4536L7.00821 15.0063C5.7305 14.0074 4.74691 12.681 4.16153 11.1685C3.61275 9.75038 3.43298 8.21783 3.63712 6.71436L3.68301 6.41357L3.68497 6.40186C3.71018 6.22944 3.78449 6.06753 3.89883 5.93604C4.01321 5.80463 4.16324 5.7085 4.33047 5.65967L4.34024 5.65674C4.49889 5.60702 4.66868 5.6051 4.82852 5.65088C4.9485 5.68528 5.05935 5.74537 5.15274 5.82666L5.24063 5.91553C5.86295 6.72517 6.64183 7.4014 7.53165 7.90283C8.4298 8.40895 9.42165 8.72723 10.4467 8.8374L10.9789 8.89404L10.9994 8.35986C11.0401 7.31262 11.4907 6.32286 12.2533 5.604L12.2563 5.60107C12.6367 5.23686 13.0859 4.95214 13.5775 4.76318C14.0691 4.57428 14.5932 4.48484 15.1195 4.50049ZM14.9926 5.50049C14.6045 5.49308 14.2182 5.56005 13.8559 5.69971C13.4877 5.84169 13.1513 6.05537 12.8656 6.32764C12.4808 6.69287 12.1986 7.15311 12.0473 7.66162C11.8966 8.16838 11.8811 8.70568 12.0023 9.22021V9.22119L12.1322 9.79053L11.5463 9.83154H11.5395C10.4128 9.92342 9.27938 9.7698 8.21817 9.38037C7.15696 8.99094 6.19278 8.37549 5.39297 7.57666L4.57266 6.75635L4.54044 7.9165C4.50144 9.32523 4.85333 10.7176 5.55801 11.938C6.26091 13.1553 7.28758 14.1533 8.52286 14.8237V14.8247L8.99454 15.0923L8.68497 15.5347C8.06484 16.3444 7.21743 16.9511 6.2504 17.2759L4.63126 17.8198L6.28848 18.2349C7.01168 18.4161 7.75486 18.5048 8.5004 18.4995V18.5005H8.59024V18.4995C9.81321 18.5393 11.0325 18.3374 12.1772 17.9048C13.3271 17.4701 14.3794 16.8116 15.2729 15.9673C16.1664 15.1229 16.8832 14.1094 17.3822 12.9858C17.8792 11.8667 18.15 10.6601 18.1791 9.43604C18.1894 9.23803 18.2716 9.05015 18.4096 8.90771L18.4272 8.89014L18.4428 8.86963C18.71 8.53127 18.9383 8.16376 19.1225 7.77393L19.4604 7.05811L18.6693 7.06006C18.3795 7.06061 18.0924 7.00017 17.8275 6.88232C17.5628 6.76452 17.3258 6.59206 17.1322 6.37646L17.1225 6.36475L17.1117 6.35498L16.894 6.15869C16.6664 5.97405 16.4118 5.82445 16.1391 5.71436C15.7811 5.56996 15.3979 5.4975 15.0121 5.50049H14.9926Z" fill="#033604" stroke="#033604"/>
</g>
<defs>
<clipPath id="clip0_3012_1808">
<rect width="24" height="24" fill="white"/>
</clipPath>
</defs>
</svg>
